<mxfile host="app.diagrams.net" modified="2023-07-22T21:07:31.680Z" agent="Mozilla/5.0 (Windows NT 10.0; Win64; x64) AppleWebKit/537.36 (KHTML, like Gecko) Chrome/114.0.0.0 Safari/537.36 Edg/114.0.1823.82" etag="VaJ9KTgkTK2uD5zB1Siv" version="21.6.5" type="device">
  <diagram name="Side-1" id="evzMNQQhtWziVue2IMiz">
    <mxGraphModel dx="1379" dy="1957" grid="1" gridSize="10" guides="1" tooltips="1" connect="1" arrows="1" fold="1" page="1" pageScale="1" pageWidth="827" pageHeight="1169" math="0" shadow="0">
      <root>
        <mxCell id="0" />
        <mxCell id="1" parent="0" />
        <mxCell id="NgxQ5zwWhLNNdqE6o9hI-1" value="" style="image;aspect=fixed;html=1;points=[];align=center;fontSize=12;image=img/lib/azure2/general/Subscriptions.svg;" parent="1" vertex="1">
          <mxGeometry x="430" y="50" width="44" height="71" as="geometry" />
        </mxCell>
        <mxCell id="NgxQ5zwWhLNNdqE6o9hI-2" value="" style="image;aspect=fixed;html=1;points=[];align=center;fontSize=12;image=img/lib/azure2/networking/Network_Security_Groups.svg;" parent="1" vertex="1">
          <mxGeometry x="141.76000000000002" y="376" width="16.47" height="20" as="geometry" />
        </mxCell>
        <mxCell id="NgxQ5zwWhLNNdqE6o9hI-11" value="" style="image;aspect=fixed;html=1;points=[];align=center;fontSize=12;image=img/lib/azure2/networking/Virtual_Networks.svg;" parent="1" vertex="1">
          <mxGeometry x="100.9" y="280" width="100.5" height="60" as="geometry" />
        </mxCell>
        <mxCell id="NgxQ5zwWhLNNdqE6o9hI-16" value="" style="image;aspect=fixed;html=1;points=[];align=center;fontSize=12;image=img/lib/azure2/networking/Virtual_Networks_Classic.svg;" parent="1" vertex="1">
          <mxGeometry x="133.25" y="422" width="33.5" height="20" as="geometry" />
        </mxCell>
        <mxCell id="NgxQ5zwWhLNNdqE6o9hI-21" value="" style="image;aspect=fixed;html=1;points=[];align=center;fontSize=12;image=img/lib/azure2/networking/Network_Security_Groups.svg;" parent="1" vertex="1">
          <mxGeometry x="300.25" y="370" width="16.47" height="20" as="geometry" />
        </mxCell>
        <mxCell id="NgxQ5zwWhLNNdqE6o9hI-22" value="" style="image;aspect=fixed;html=1;points=[];align=center;fontSize=12;image=img/lib/azure2/networking/Network_Security_Groups.svg;" parent="1" vertex="1">
          <mxGeometry x="342.27" y="370" width="16.47" height="20" as="geometry" />
        </mxCell>
        <mxCell id="NgxQ5zwWhLNNdqE6o9hI-23" value="" style="image;aspect=fixed;html=1;points=[];align=center;fontSize=12;image=img/lib/azure2/networking/Network_Security_Groups.svg;" parent="1" vertex="1">
          <mxGeometry x="384.28000000000003" y="370" width="16.47" height="20" as="geometry" />
        </mxCell>
        <mxCell id="NgxQ5zwWhLNNdqE6o9hI-24" value="" style="image;aspect=fixed;html=1;points=[];align=center;fontSize=12;image=img/lib/azure2/networking/Virtual_Networks_Classic.svg;" parent="1" vertex="1">
          <mxGeometry x="291.73" y="421" width="33.5" height="20" as="geometry" />
        </mxCell>
        <mxCell id="NgxQ5zwWhLNNdqE6o9hI-25" value="" style="image;aspect=fixed;html=1;points=[];align=center;fontSize=12;image=img/lib/azure2/networking/Virtual_Networks_Classic.svg;" parent="1" vertex="1">
          <mxGeometry x="333.75" y="421" width="33.5" height="20" as="geometry" />
        </mxCell>
        <mxCell id="NgxQ5zwWhLNNdqE6o9hI-26" value="" style="image;aspect=fixed;html=1;points=[];align=center;fontSize=12;image=img/lib/azure2/networking/Virtual_Networks_Classic.svg;" parent="1" vertex="1">
          <mxGeometry x="375.76" y="421" width="33.5" height="20" as="geometry" />
        </mxCell>
        <mxCell id="NgxQ5zwWhLNNdqE6o9hI-27" value="" style="image;aspect=fixed;html=1;points=[];align=center;fontSize=12;image=img/lib/azure2/networking/Virtual_Networks.svg;" parent="1" vertex="1">
          <mxGeometry x="300.25" y="280" width="100.5" height="60" as="geometry" />
        </mxCell>
        <mxCell id="NgxQ5zwWhLNNdqE6o9hI-28" value="" style="image;aspect=fixed;html=1;points=[];align=center;fontSize=12;image=img/lib/azure2/networking/Virtual_Networks.svg;" parent="1" vertex="1">
          <mxGeometry x="500" y="280" width="100.5" height="60" as="geometry" />
        </mxCell>
        <mxCell id="NgxQ5zwWhLNNdqE6o9hI-29" value="" style="image;aspect=fixed;html=1;points=[];align=center;fontSize=12;image=img/lib/azure2/networking/Bastions.svg;" parent="1" vertex="1">
          <mxGeometry x="139.75" y="466" width="24.74" height="29" as="geometry" />
        </mxCell>
        <mxCell id="NgxQ5zwWhLNNdqE6o9hI-31" value="" style="image;aspect=fixed;html=1;points=[];align=center;fontSize=12;image=img/lib/azure2/networking/Virtual_Networks.svg;" parent="1" vertex="1">
          <mxGeometry x="680" y="280" width="100.5" height="60" as="geometry" />
        </mxCell>
        <mxCell id="NgxQ5zwWhLNNdqE6o9hI-51" value="" style="endArrow=none;dashed=1;html=1;dashPattern=1 3;strokeWidth=2;rounded=0;" parent="1" edge="1">
          <mxGeometry width="50" height="50" relative="1" as="geometry">
            <mxPoint x="58" y="510" as="sourcePoint" />
            <mxPoint x="58" y="310" as="targetPoint" />
          </mxGeometry>
        </mxCell>
        <mxCell id="NgxQ5zwWhLNNdqE6o9hI-52" value="mgmt: static address space" style="text;html=1;strokeColor=none;fillColor=none;align=center;verticalAlign=middle;whiteSpace=wrap;rounded=0;" parent="1" vertex="1">
          <mxGeometry x="60" y="250" width="180" height="30" as="geometry" />
        </mxCell>
        <mxCell id="NgxQ5zwWhLNNdqE6o9hI-53" value="prod: env address space" style="text;html=1;strokeColor=none;fillColor=none;align=center;verticalAlign=middle;whiteSpace=wrap;rounded=0;" parent="1" vertex="1">
          <mxGeometry x="260.5" y="250" width="180" height="30" as="geometry" />
        </mxCell>
        <mxCell id="NgxQ5zwWhLNNdqE6o9hI-54" value="preprod: env address space" style="text;html=1;strokeColor=none;fillColor=none;align=center;verticalAlign=middle;whiteSpace=wrap;rounded=0;" parent="1" vertex="1">
          <mxGeometry x="460.25" y="250" width="180" height="30" as="geometry" />
        </mxCell>
        <mxCell id="NgxQ5zwWhLNNdqE6o9hI-55" value="dev: env address space" style="text;html=1;strokeColor=none;fillColor=none;align=center;verticalAlign=middle;whiteSpace=wrap;rounded=0;" parent="1" vertex="1">
          <mxGeometry x="640.25" y="250" width="180" height="30" as="geometry" />
        </mxCell>
        <mxCell id="NgxQ5zwWhLNNdqE6o9hI-56" value="LAN" style="text;html=1;align=center;verticalAlign=middle;resizable=0;points=[];autosize=1;strokeColor=none;fillColor=none;" parent="1" vertex="1">
          <mxGeometry x="283.48" y="395" width="50" height="30" as="geometry" />
        </mxCell>
        <mxCell id="NgxQ5zwWhLNNdqE6o9hI-57" value="SERV" style="text;html=1;align=center;verticalAlign=middle;resizable=0;points=[];autosize=1;strokeColor=none;fillColor=none;" parent="1" vertex="1">
          <mxGeometry x="320.23" y="395" width="60" height="30" as="geometry" />
        </mxCell>
        <mxCell id="NgxQ5zwWhLNNdqE6o9hI-58" value="DMZ" style="text;html=1;align=center;verticalAlign=middle;resizable=0;points=[];autosize=1;strokeColor=none;fillColor=none;" parent="1" vertex="1">
          <mxGeometry x="367.51" y="395" width="50" height="30" as="geometry" />
        </mxCell>
        <mxCell id="NgxQ5zwWhLNNdqE6o9hI-60" value="/24" style="text;html=1;align=center;verticalAlign=middle;resizable=0;points=[];autosize=1;strokeColor=none;fillColor=none;" parent="1" vertex="1">
          <mxGeometry x="288.75" y="441" width="40" height="30" as="geometry" />
        </mxCell>
        <mxCell id="NgxQ5zwWhLNNdqE6o9hI-62" value="/22" style="text;html=1;align=center;verticalAlign=middle;resizable=0;points=[];autosize=1;strokeColor=none;fillColor=none;" parent="1" vertex="1">
          <mxGeometry x="330.23" y="441" width="40" height="30" as="geometry" />
        </mxCell>
        <mxCell id="NgxQ5zwWhLNNdqE6o9hI-63" value="/24" style="text;html=1;align=center;verticalAlign=middle;resizable=0;points=[];autosize=1;strokeColor=none;fillColor=none;" parent="1" vertex="1">
          <mxGeometry x="372.51" y="440" width="40" height="30" as="geometry" />
        </mxCell>
        <mxCell id="NgxQ5zwWhLNNdqE6o9hI-64" value="bastion" style="text;html=1;strokeColor=none;fillColor=none;align=center;verticalAlign=middle;whiteSpace=wrap;rounded=0;" parent="1" vertex="1">
          <mxGeometry x="123.69" y="445" width="60" height="30" as="geometry" />
        </mxCell>
        <mxCell id="NgxQ5zwWhLNNdqE6o9hI-65" value="bastion subnet" style="text;html=1;align=center;verticalAlign=middle;resizable=0;points=[];autosize=1;strokeColor=none;fillColor=none;" parent="1" vertex="1">
          <mxGeometry x="704.99" y="980" width="100" height="30" as="geometry" />
        </mxCell>
        <mxCell id="NgxQ5zwWhLNNdqE6o9hI-67" value="bastion subnet" style="text;html=1;align=center;verticalAlign=middle;resizable=0;points=[];autosize=1;strokeColor=none;fillColor=none;" parent="1" vertex="1">
          <mxGeometry x="96.75000000000003" y="396" width="100" height="30" as="geometry" />
        </mxCell>
        <mxCell id="NgxQ5zwWhLNNdqE6o9hI-72" value="mgmt NSG" style="text;html=1;align=center;verticalAlign=middle;resizable=0;points=[];autosize=1;strokeColor=none;fillColor=none;" parent="1" vertex="1">
          <mxGeometry x="111.15" y="347" width="80" height="30" as="geometry" />
        </mxCell>
        <mxCell id="NgxQ5zwWhLNNdqE6o9hI-75" value="" style="image;aspect=fixed;html=1;points=[];align=center;fontSize=12;image=img/lib/azure2/networking/Network_Security_Groups.svg;" parent="1" vertex="1">
          <mxGeometry x="500.01" y="370" width="16.47" height="20" as="geometry" />
        </mxCell>
        <mxCell id="NgxQ5zwWhLNNdqE6o9hI-76" value="" style="image;aspect=fixed;html=1;points=[];align=center;fontSize=12;image=img/lib/azure2/networking/Network_Security_Groups.svg;" parent="1" vertex="1">
          <mxGeometry x="542.03" y="370" width="16.47" height="20" as="geometry" />
        </mxCell>
        <mxCell id="NgxQ5zwWhLNNdqE6o9hI-77" value="" style="image;aspect=fixed;html=1;points=[];align=center;fontSize=12;image=img/lib/azure2/networking/Network_Security_Groups.svg;" parent="1" vertex="1">
          <mxGeometry x="584.04" y="370" width="16.47" height="20" as="geometry" />
        </mxCell>
        <mxCell id="NgxQ5zwWhLNNdqE6o9hI-78" value="" style="image;aspect=fixed;html=1;points=[];align=center;fontSize=12;image=img/lib/azure2/networking/Virtual_Networks_Classic.svg;" parent="1" vertex="1">
          <mxGeometry x="491.49" y="421" width="33.5" height="20" as="geometry" />
        </mxCell>
        <mxCell id="NgxQ5zwWhLNNdqE6o9hI-79" value="" style="image;aspect=fixed;html=1;points=[];align=center;fontSize=12;image=img/lib/azure2/networking/Virtual_Networks_Classic.svg;" parent="1" vertex="1">
          <mxGeometry x="533.51" y="421" width="33.5" height="20" as="geometry" />
        </mxCell>
        <mxCell id="NgxQ5zwWhLNNdqE6o9hI-80" value="" style="image;aspect=fixed;html=1;points=[];align=center;fontSize=12;image=img/lib/azure2/networking/Virtual_Networks_Classic.svg;" parent="1" vertex="1">
          <mxGeometry x="575.52" y="421" width="33.5" height="20" as="geometry" />
        </mxCell>
        <mxCell id="NgxQ5zwWhLNNdqE6o9hI-81" value="LAN" style="text;html=1;align=center;verticalAlign=middle;resizable=0;points=[];autosize=1;strokeColor=none;fillColor=none;" parent="1" vertex="1">
          <mxGeometry x="483.24" y="395" width="50" height="30" as="geometry" />
        </mxCell>
        <mxCell id="NgxQ5zwWhLNNdqE6o9hI-82" value="SERV" style="text;html=1;align=center;verticalAlign=middle;resizable=0;points=[];autosize=1;strokeColor=none;fillColor=none;" parent="1" vertex="1">
          <mxGeometry x="519.99" y="395" width="60" height="30" as="geometry" />
        </mxCell>
        <mxCell id="NgxQ5zwWhLNNdqE6o9hI-83" value="DMZ" style="text;html=1;align=center;verticalAlign=middle;resizable=0;points=[];autosize=1;strokeColor=none;fillColor=none;" parent="1" vertex="1">
          <mxGeometry x="567.27" y="395" width="50" height="30" as="geometry" />
        </mxCell>
        <mxCell id="NgxQ5zwWhLNNdqE6o9hI-84" value="/24" style="text;html=1;align=center;verticalAlign=middle;resizable=0;points=[];autosize=1;strokeColor=none;fillColor=none;" parent="1" vertex="1">
          <mxGeometry x="488.51" y="441" width="40" height="30" as="geometry" />
        </mxCell>
        <mxCell id="NgxQ5zwWhLNNdqE6o9hI-85" value="/22" style="text;html=1;align=center;verticalAlign=middle;resizable=0;points=[];autosize=1;strokeColor=none;fillColor=none;" parent="1" vertex="1">
          <mxGeometry x="529.99" y="441" width="40" height="30" as="geometry" />
        </mxCell>
        <mxCell id="NgxQ5zwWhLNNdqE6o9hI-86" value="/24" style="text;html=1;align=center;verticalAlign=middle;resizable=0;points=[];autosize=1;strokeColor=none;fillColor=none;" parent="1" vertex="1">
          <mxGeometry x="572.27" y="440" width="40" height="30" as="geometry" />
        </mxCell>
        <mxCell id="NgxQ5zwWhLNNdqE6o9hI-87" value="" style="image;aspect=fixed;html=1;points=[];align=center;fontSize=12;image=img/lib/azure2/networking/Network_Security_Groups.svg;" parent="1" vertex="1">
          <mxGeometry x="680.01" y="371.5" width="16.47" height="20" as="geometry" />
        </mxCell>
        <mxCell id="NgxQ5zwWhLNNdqE6o9hI-88" value="" style="image;aspect=fixed;html=1;points=[];align=center;fontSize=12;image=img/lib/azure2/networking/Network_Security_Groups.svg;" parent="1" vertex="1">
          <mxGeometry x="722.03" y="371.5" width="16.47" height="20" as="geometry" />
        </mxCell>
        <mxCell id="NgxQ5zwWhLNNdqE6o9hI-89" value="" style="image;aspect=fixed;html=1;points=[];align=center;fontSize=12;image=img/lib/azure2/networking/Network_Security_Groups.svg;" parent="1" vertex="1">
          <mxGeometry x="764.04" y="371.5" width="16.47" height="20" as="geometry" />
        </mxCell>
        <mxCell id="NgxQ5zwWhLNNdqE6o9hI-90" value="" style="image;aspect=fixed;html=1;points=[];align=center;fontSize=12;image=img/lib/azure2/networking/Virtual_Networks_Classic.svg;" parent="1" vertex="1">
          <mxGeometry x="671.49" y="422.5" width="33.5" height="20" as="geometry" />
        </mxCell>
        <mxCell id="NgxQ5zwWhLNNdqE6o9hI-91" value="" style="image;aspect=fixed;html=1;points=[];align=center;fontSize=12;image=img/lib/azure2/networking/Virtual_Networks_Classic.svg;" parent="1" vertex="1">
          <mxGeometry x="713.51" y="422.5" width="33.5" height="20" as="geometry" />
        </mxCell>
        <mxCell id="NgxQ5zwWhLNNdqE6o9hI-92" value="" style="image;aspect=fixed;html=1;points=[];align=center;fontSize=12;image=img/lib/azure2/networking/Virtual_Networks_Classic.svg;" parent="1" vertex="1">
          <mxGeometry x="755.52" y="422.5" width="33.5" height="20" as="geometry" />
        </mxCell>
        <mxCell id="NgxQ5zwWhLNNdqE6o9hI-93" value="LAN" style="text;html=1;align=center;verticalAlign=middle;resizable=0;points=[];autosize=1;strokeColor=none;fillColor=none;" parent="1" vertex="1">
          <mxGeometry x="663.24" y="396.5" width="50" height="30" as="geometry" />
        </mxCell>
        <mxCell id="NgxQ5zwWhLNNdqE6o9hI-94" value="SERV" style="text;html=1;align=center;verticalAlign=middle;resizable=0;points=[];autosize=1;strokeColor=none;fillColor=none;" parent="1" vertex="1">
          <mxGeometry x="699.99" y="396.5" width="60" height="30" as="geometry" />
        </mxCell>
        <mxCell id="NgxQ5zwWhLNNdqE6o9hI-95" value="DMZ" style="text;html=1;align=center;verticalAlign=middle;resizable=0;points=[];autosize=1;strokeColor=none;fillColor=none;" parent="1" vertex="1">
          <mxGeometry x="747.27" y="396.5" width="50" height="30" as="geometry" />
        </mxCell>
        <mxCell id="NgxQ5zwWhLNNdqE6o9hI-96" value="/26" style="text;html=1;align=center;verticalAlign=middle;resizable=0;points=[];autosize=1;strokeColor=none;fillColor=none;" parent="1" vertex="1">
          <mxGeometry x="668.51" y="442.5" width="40" height="30" as="geometry" />
        </mxCell>
        <mxCell id="NgxQ5zwWhLNNdqE6o9hI-97" value="/26" style="text;html=1;align=center;verticalAlign=middle;resizable=0;points=[];autosize=1;strokeColor=none;fillColor=none;" parent="1" vertex="1">
          <mxGeometry x="709.99" y="442.5" width="40" height="30" as="geometry" />
        </mxCell>
        <mxCell id="NgxQ5zwWhLNNdqE6o9hI-98" value="/26" style="text;html=1;align=center;verticalAlign=middle;resizable=0;points=[];autosize=1;strokeColor=none;fillColor=none;" parent="1" vertex="1">
          <mxGeometry x="752.27" y="441.5" width="40" height="30" as="geometry" />
        </mxCell>
        <mxCell id="NgxQ5zwWhLNNdqE6o9hI-99" value="" style="endArrow=none;dashed=1;html=1;dashPattern=1 3;strokeWidth=2;rounded=0;" parent="1" edge="1">
          <mxGeometry width="50" height="50" relative="1" as="geometry">
            <mxPoint x="70" y="510" as="sourcePoint" />
            <mxPoint x="240" y="510" as="targetPoint" />
          </mxGeometry>
        </mxCell>
        <mxCell id="NgxQ5zwWhLNNdqE6o9hI-100" value="" style="endArrow=none;dashed=1;html=1;dashPattern=1 3;strokeWidth=2;rounded=0;" parent="1" edge="1">
          <mxGeometry width="50" height="50" relative="1" as="geometry">
            <mxPoint x="242" y="314" as="sourcePoint" />
            <mxPoint x="242" y="514" as="targetPoint" />
          </mxGeometry>
        </mxCell>
        <mxCell id="NgxQ5zwWhLNNdqE6o9hI-101" value="" style="endArrow=none;dashed=1;html=1;dashPattern=1 3;strokeWidth=2;rounded=0;entryX=1.046;entryY=0.533;entryDx=0;entryDy=0;entryPerimeter=0;" parent="1" edge="1">
          <mxGeometry width="50" height="50" relative="1" as="geometry">
            <mxPoint x="242" y="309" as="sourcePoint" />
            <mxPoint x="208.02300000000014" y="308.9799999999999" as="targetPoint" />
          </mxGeometry>
        </mxCell>
        <mxCell id="NgxQ5zwWhLNNdqE6o9hI-102" value="" style="endArrow=none;dashed=1;html=1;dashPattern=1 3;strokeWidth=2;rounded=0;" parent="1" edge="1">
          <mxGeometry width="50" height="50" relative="1" as="geometry">
            <mxPoint x="60" y="310" as="sourcePoint" />
            <mxPoint x="100" y="310" as="targetPoint" />
          </mxGeometry>
        </mxCell>
        <mxCell id="NgxQ5zwWhLNNdqE6o9hI-104" value="&lt;h1&gt;Address spaces default:&lt;/h1&gt;&lt;div&gt;&lt;br&gt;&lt;/div&gt;&lt;div&gt;mgmt&amp;nbsp; &amp;nbsp; &amp;nbsp;-&amp;gt;&amp;nbsp; SPACE&amp;nbsp; &amp;nbsp; &amp;nbsp;-&amp;gt; 10.99.0.0/24&lt;/div&gt;&lt;div&gt;&amp;nbsp; &amp;nbsp; &amp;nbsp; &amp;nbsp; &amp;nbsp; &amp;nbsp; &amp;nbsp; &amp;nbsp; &amp;nbsp; &amp;nbsp;BASTION -&amp;gt; 10.99.0.0/26&lt;/div&gt;&lt;div&gt;&lt;br&gt;&lt;/div&gt;&lt;div&gt;prod&amp;nbsp; &amp;nbsp; &amp;nbsp; &amp;nbsp;-&amp;gt;&amp;nbsp; SPACE&amp;nbsp; &amp;nbsp; -&amp;gt;&amp;nbsp; 10.0.0.0/16&lt;/div&gt;&lt;div&gt;&amp;nbsp; &amp;nbsp; &amp;nbsp; &amp;nbsp; &amp;nbsp; &amp;nbsp; &amp;nbsp; &amp;nbsp; &amp;nbsp; &amp;nbsp; LAN&amp;nbsp; &amp;nbsp; &amp;nbsp; &amp;nbsp; -&amp;gt; 10.0.128.0/24&lt;/div&gt;&lt;div&gt;&amp;nbsp; &amp;nbsp; &amp;nbsp; &amp;nbsp; &amp;nbsp; &amp;nbsp; &amp;nbsp; &amp;nbsp; &amp;nbsp; &amp;nbsp; SERV&amp;nbsp; &amp;nbsp; &amp;nbsp;-&amp;gt; 10.0.0.0/22&lt;/div&gt;&lt;div&gt;&amp;nbsp; &amp;nbsp; &amp;nbsp; &amp;nbsp; &amp;nbsp; &amp;nbsp; &amp;nbsp; &amp;nbsp; &amp;nbsp; &amp;nbsp; DMZ&amp;nbsp; &amp;nbsp; &amp;nbsp; &amp;nbsp;-&amp;gt; 10.0.254.0/24&lt;/div&gt;&lt;div&gt;&lt;br&gt;&lt;/div&gt;&lt;div&gt;preprod&amp;nbsp; -&amp;gt;&amp;nbsp; SPACE&amp;nbsp; &amp;nbsp;-&amp;gt; 172.16.0.0/16&lt;/div&gt;&lt;div&gt;&amp;nbsp; &amp;nbsp; &amp;nbsp; &amp;nbsp; &amp;nbsp; &amp;nbsp; &amp;nbsp; &amp;nbsp; &amp;nbsp; &amp;nbsp; LAN&amp;nbsp; &amp;nbsp; &amp;nbsp; &amp;nbsp;-&amp;gt; 172.16.128.0/24&lt;/div&gt;&lt;div&gt;&lt;span style=&quot;white-space: pre;&quot;&gt;&#x9;&lt;/span&gt;&lt;span style=&quot;white-space: pre;&quot;&gt;&#x9;&lt;/span&gt;&amp;nbsp; &amp;nbsp; SERV&amp;nbsp; &amp;nbsp; -&amp;gt; 172.16.0.0/22&lt;br&gt;&lt;/div&gt;&lt;div&gt;&lt;span style=&quot;white-space: pre;&quot;&gt;&#x9;&lt;/span&gt;&lt;span style=&quot;white-space: pre;&quot;&gt;&#x9;&lt;/span&gt;&amp;nbsp; &amp;nbsp; DMZ&amp;nbsp; &amp;nbsp; &amp;nbsp; -&amp;gt; 172.16.254.0/24&lt;/div&gt;&lt;div&gt;&lt;br&gt;&lt;/div&gt;&lt;div&gt;dev&amp;nbsp; &amp;nbsp; &amp;nbsp; &amp;nbsp; &amp;nbsp;-&amp;gt;&amp;nbsp; SPACE&amp;nbsp; &amp;nbsp;-&amp;gt; 192.168.0.0/24&lt;/div&gt;&lt;div&gt;&amp;nbsp; &amp;nbsp; &amp;nbsp; &amp;nbsp; &amp;nbsp; &amp;nbsp; &amp;nbsp; &amp;nbsp; &amp;nbsp; &amp;nbsp; LAN&amp;nbsp; &amp;nbsp; &amp;nbsp; &amp;nbsp; -&amp;gt; 192.168.0.64/26&lt;/div&gt;&lt;div&gt;&amp;nbsp; &amp;nbsp; &amp;nbsp; &amp;nbsp; &amp;nbsp; &amp;nbsp; &amp;nbsp; &amp;nbsp; &amp;nbsp; &amp;nbsp; SERV&amp;nbsp; &amp;nbsp; &amp;nbsp;-&amp;gt; 192.168.0.0/26&lt;/div&gt;&lt;div&gt;&amp;nbsp; &amp;nbsp; &amp;nbsp; &amp;nbsp; &amp;nbsp; &amp;nbsp; &amp;nbsp; &amp;nbsp; &amp;nbsp; &amp;nbsp; DMZ&amp;nbsp; &amp;nbsp; &amp;nbsp; &amp;nbsp;-&amp;gt; 192.168.0.192/26&lt;/div&gt;&lt;div&gt;&lt;br&gt;&lt;/div&gt;&lt;div&gt;&lt;br&gt;&lt;/div&gt;" style="text;html=1;strokeColor=none;fillColor=none;spacing=5;spacingTop=-20;whiteSpace=wrap;overflow=hidden;rounded=0;" parent="1" vertex="1">
          <mxGeometry x="50" y="-198" width="304" height="319" as="geometry" />
        </mxCell>
        <mxCell id="NgxQ5zwWhLNNdqE6o9hI-106" value="" style="endArrow=none;dashed=1;html=1;rounded=0;exitX=0.5;exitY=0;exitDx=0;exitDy=0;" parent="1" source="NgxQ5zwWhLNNdqE6o9hI-52" edge="1">
          <mxGeometry width="50" height="50" relative="1" as="geometry">
            <mxPoint x="80" y="220" as="sourcePoint" />
            <mxPoint x="150" y="170" as="targetPoint" />
          </mxGeometry>
        </mxCell>
        <mxCell id="NgxQ5zwWhLNNdqE6o9hI-107" value="" style="endArrow=none;dashed=1;html=1;rounded=0;" parent="1" edge="1">
          <mxGeometry width="50" height="50" relative="1" as="geometry">
            <mxPoint x="150" y="170" as="sourcePoint" />
            <mxPoint x="730" y="170" as="targetPoint" />
          </mxGeometry>
        </mxCell>
        <mxCell id="NgxQ5zwWhLNNdqE6o9hI-112" value="Peering prod" style="text;html=1;strokeColor=none;fillColor=none;align=center;verticalAlign=middle;whiteSpace=wrap;rounded=0;" parent="1" vertex="1">
          <mxGeometry x="310.76" y="200" width="79.49" height="30" as="geometry" />
        </mxCell>
        <mxCell id="NgxQ5zwWhLNNdqE6o9hI-114" value="" style="endArrow=none;dashed=1;html=1;rounded=0;entryX=0.5;entryY=0;entryDx=0;entryDy=0;" parent="1" target="NgxQ5zwWhLNNdqE6o9hI-112" edge="1">
          <mxGeometry width="50" height="50" relative="1" as="geometry">
            <mxPoint x="351" y="170" as="sourcePoint" />
            <mxPoint x="480" y="200" as="targetPoint" />
          </mxGeometry>
        </mxCell>
        <mxCell id="NgxQ5zwWhLNNdqE6o9hI-115" value="" style="endArrow=none;dashed=1;html=1;rounded=0;exitX=0.5;exitY=1;exitDx=0;exitDy=0;entryX=0.5;entryY=0;entryDx=0;entryDy=0;" parent="1" source="NgxQ5zwWhLNNdqE6o9hI-112" target="NgxQ5zwWhLNNdqE6o9hI-53" edge="1">
          <mxGeometry width="50" height="50" relative="1" as="geometry">
            <mxPoint x="490" y="230" as="sourcePoint" />
            <mxPoint x="540" y="180" as="targetPoint" />
          </mxGeometry>
        </mxCell>
        <mxCell id="NgxQ5zwWhLNNdqE6o9hI-116" value="Peering preprod" style="text;html=1;strokeColor=none;fillColor=none;align=center;verticalAlign=middle;whiteSpace=wrap;rounded=0;" parent="1" vertex="1">
          <mxGeometry x="505.25" y="200" width="89.48" height="30" as="geometry" />
        </mxCell>
        <mxCell id="NgxQ5zwWhLNNdqE6o9hI-118" value="Peering dev" style="text;html=1;strokeColor=none;fillColor=none;align=center;verticalAlign=middle;whiteSpace=wrap;rounded=0;" parent="1" vertex="1">
          <mxGeometry x="690.25" y="200" width="79.49" height="30" as="geometry" />
        </mxCell>
        <mxCell id="NgxQ5zwWhLNNdqE6o9hI-119" value="" style="endArrow=none;dashed=1;html=1;rounded=0;entryX=0.5;entryY=0;entryDx=0;entryDy=0;" parent="1" target="NgxQ5zwWhLNNdqE6o9hI-118" edge="1">
          <mxGeometry width="50" height="50" relative="1" as="geometry">
            <mxPoint x="730.49" y="170" as="sourcePoint" />
            <mxPoint x="859.49" y="200" as="targetPoint" />
          </mxGeometry>
        </mxCell>
        <mxCell id="NgxQ5zwWhLNNdqE6o9hI-122" value="" style="endArrow=none;dashed=1;html=1;rounded=0;entryX=0.5;entryY=0;entryDx=0;entryDy=0;" parent="1" target="NgxQ5zwWhLNNdqE6o9hI-116" edge="1">
          <mxGeometry width="50" height="50" relative="1" as="geometry">
            <mxPoint x="550" y="170" as="sourcePoint" />
            <mxPoint x="440" y="570" as="targetPoint" />
          </mxGeometry>
        </mxCell>
        <mxCell id="NgxQ5zwWhLNNdqE6o9hI-123" value="" style="endArrow=none;dashed=1;html=1;rounded=0;entryX=0.5;entryY=1;entryDx=0;entryDy=0;exitX=0.5;exitY=0;exitDx=0;exitDy=0;" parent="1" source="NgxQ5zwWhLNNdqE6o9hI-54" target="NgxQ5zwWhLNNdqE6o9hI-116" edge="1">
          <mxGeometry width="50" height="50" relative="1" as="geometry">
            <mxPoint x="490" y="600" as="sourcePoint" />
            <mxPoint x="540" y="550" as="targetPoint" />
          </mxGeometry>
        </mxCell>
        <mxCell id="NgxQ5zwWhLNNdqE6o9hI-124" value="" style="endArrow=none;dashed=1;html=1;rounded=0;exitX=0.5;exitY=1;exitDx=0;exitDy=0;entryX=0.5;entryY=0;entryDx=0;entryDy=0;" parent="1" edge="1">
          <mxGeometry width="50" height="50" relative="1" as="geometry">
            <mxPoint x="730" y="230" as="sourcePoint" />
            <mxPoint x="730" y="250" as="targetPoint" />
          </mxGeometry>
        </mxCell>
        <mxCell id="NgxQ5zwWhLNNdqE6o9hI-126" value="" style="endArrow=none;dashed=1;html=1;dashPattern=1 3;strokeWidth=2;rounded=0;" parent="1" edge="1">
          <mxGeometry width="50" height="50" relative="1" as="geometry">
            <mxPoint x="250" y="310" as="sourcePoint" />
            <mxPoint x="300" y="310" as="targetPoint" />
          </mxGeometry>
        </mxCell>
        <mxCell id="NgxQ5zwWhLNNdqE6o9hI-127" value="" style="endArrow=none;dashed=1;html=1;dashPattern=1 3;strokeWidth=2;rounded=0;" parent="1" edge="1">
          <mxGeometry width="50" height="50" relative="1" as="geometry">
            <mxPoint x="240" y="510" as="sourcePoint" />
            <mxPoint x="450" y="510" as="targetPoint" />
          </mxGeometry>
        </mxCell>
        <mxCell id="NgxQ5zwWhLNNdqE6o9hI-128" value="" style="endArrow=none;dashed=1;html=1;dashPattern=1 3;strokeWidth=2;rounded=0;exitX=1.052;exitY=0.5;exitDx=0;exitDy=0;exitPerimeter=0;" parent="1" source="NgxQ5zwWhLNNdqE6o9hI-27" edge="1">
          <mxGeometry width="50" height="50" relative="1" as="geometry">
            <mxPoint x="430" y="310" as="sourcePoint" />
            <mxPoint x="450" y="310" as="targetPoint" />
          </mxGeometry>
        </mxCell>
        <mxCell id="NgxQ5zwWhLNNdqE6o9hI-129" value="" style="endArrow=none;dashed=1;html=1;dashPattern=1 3;strokeWidth=2;rounded=0;" parent="1" edge="1">
          <mxGeometry width="50" height="50" relative="1" as="geometry">
            <mxPoint x="450" y="510" as="sourcePoint" />
            <mxPoint x="450" y="310" as="targetPoint" />
          </mxGeometry>
        </mxCell>
        <mxCell id="NgxQ5zwWhLNNdqE6o9hI-130" value="" style="endArrow=none;dashed=1;html=1;dashPattern=1 3;strokeWidth=2;rounded=0;entryX=-0.047;entryY=0.501;entryDx=0;entryDy=0;entryPerimeter=0;" parent="1" target="NgxQ5zwWhLNNdqE6o9hI-28" edge="1">
          <mxGeometry width="50" height="50" relative="1" as="geometry">
            <mxPoint x="450" y="310" as="sourcePoint" />
            <mxPoint x="540" y="590" as="targetPoint" />
          </mxGeometry>
        </mxCell>
        <mxCell id="NgxQ5zwWhLNNdqE6o9hI-131" value="" style="endArrow=none;dashed=1;html=1;dashPattern=1 3;strokeWidth=2;rounded=0;" parent="1" edge="1">
          <mxGeometry width="50" height="50" relative="1" as="geometry">
            <mxPoint x="640" y="510" as="sourcePoint" />
            <mxPoint x="450" y="510" as="targetPoint" />
          </mxGeometry>
        </mxCell>
        <mxCell id="NgxQ5zwWhLNNdqE6o9hI-132" value="" style="endArrow=none;dashed=1;html=1;dashPattern=1 3;strokeWidth=2;rounded=0;entryX=1.023;entryY=0.542;entryDx=0;entryDy=0;entryPerimeter=0;" parent="1" target="NgxQ5zwWhLNNdqE6o9hI-28" edge="1">
          <mxGeometry width="50" height="50" relative="1" as="geometry">
            <mxPoint x="640" y="313" as="sourcePoint" />
            <mxPoint x="580" y="590" as="targetPoint" />
          </mxGeometry>
        </mxCell>
        <mxCell id="NgxQ5zwWhLNNdqE6o9hI-133" value="" style="endArrow=none;dashed=1;html=1;dashPattern=1 3;strokeWidth=2;rounded=0;" parent="1" edge="1">
          <mxGeometry width="50" height="50" relative="1" as="geometry">
            <mxPoint x="640" y="510" as="sourcePoint" />
            <mxPoint x="640" y="310" as="targetPoint" />
          </mxGeometry>
        </mxCell>
        <mxCell id="NgxQ5zwWhLNNdqE6o9hI-134" value="" style="endArrow=none;dashed=1;html=1;dashPattern=1 3;strokeWidth=2;rounded=0;exitX=-0.025;exitY=0.554;exitDx=0;exitDy=0;exitPerimeter=0;" parent="1" source="NgxQ5zwWhLNNdqE6o9hI-31" edge="1">
          <mxGeometry width="50" height="50" relative="1" as="geometry">
            <mxPoint x="675.2764999999999" y="307.20000000000005" as="sourcePoint" />
            <mxPoint x="640" y="313" as="targetPoint" />
          </mxGeometry>
        </mxCell>
        <mxCell id="NgxQ5zwWhLNNdqE6o9hI-135" value="" style="endArrow=none;dashed=1;html=1;dashPattern=1 3;strokeWidth=2;rounded=0;" parent="1" edge="1">
          <mxGeometry width="50" height="50" relative="1" as="geometry">
            <mxPoint x="820" y="510" as="sourcePoint" />
            <mxPoint x="640" y="510" as="targetPoint" />
          </mxGeometry>
        </mxCell>
        <mxCell id="NgxQ5zwWhLNNdqE6o9hI-136" value="" style="endArrow=none;dashed=1;html=1;dashPattern=1 3;strokeWidth=2;rounded=0;" parent="1" edge="1">
          <mxGeometry width="50" height="50" relative="1" as="geometry">
            <mxPoint x="820" y="310" as="sourcePoint" />
            <mxPoint x="820" y="510" as="targetPoint" />
          </mxGeometry>
        </mxCell>
        <mxCell id="NgxQ5zwWhLNNdqE6o9hI-137" value="" style="endArrow=none;dashed=1;html=1;dashPattern=1 3;strokeWidth=2;rounded=0;exitX=1.031;exitY=0.498;exitDx=0;exitDy=0;exitPerimeter=0;" parent="1" source="NgxQ5zwWhLNNdqE6o9hI-31" edge="1">
          <mxGeometry width="50" height="50" relative="1" as="geometry">
            <mxPoint x="600" y="640" as="sourcePoint" />
            <mxPoint x="820" y="310" as="targetPoint" />
          </mxGeometry>
        </mxCell>
      </root>
    </mxGraphModel>
  </diagram>
</mxfile>
